HIERARCHY
ROOT Hips
{
	OFFSET 0.000000 35.069874 -0.029489
	CHANNELS 6 Xposition Yposition Zposition Xrotation Yrotation Zrotation 
	JOINT Spine
	{
		OFFSET 0.000000 6.876060 0.125662
		CHANNELS 3 Xrotation Yrotation Zrotation
		JOINT Spine1
		{
			OFFSET 0.000000 5.730046 0.104717
			CHANNELS 3 Xrotation Yrotation Zrotation
			JOINT Spine1_split
			{
				OFFSET 0.000000 5.730046 0.104717
				CHANNELS 3 Xrotation Yrotation Zrotation
				JOINT Spine2
				{
					OFFSET 0.000000 5.730046 0.104717
					CHANNELS 3 Xrotation Yrotation Zrotation
					JOINT Neck
					{
						OFFSET 0.000000 10.314075 0.188489
						CHANNELS 3 Xrotation Yrotation Zrotation
						JOINT Head
						{
							OFFSET 0.000000 7.643753 -2.377445
							CHANNELS 3 Xrotation Yrotation Zrotation
							JOINT HeadTop_End
							{
								OFFSET 0.000000 43.788605 -13.619637
								CHANNELS 3 Xrotation Yrotation Zrotation
								End Site
								{
									OFFSET 0.000000 0.000000 0.000000
								}
							}
						}
					}
					JOINT LeftShoulder
					{
						OFFSET 2.196093 4.412501 0.087498
						CHANNELS 3 Xrotation Yrotation Zrotation
						JOINT LeftShoulder_split
						{
							OFFSET 2.196093 4.412501 0.087498
							CHANNELS 3 Xrotation Yrotation Zrotation
							JOINT LeftArm
							{
								OFFSET 8.774866 -2.970879 -0.026997
								CHANNELS 3 Xrotation Yrotation Zrotation
								JOINT LeftForeArm
								{
									OFFSET 8.450586 -0.797432 -0.648343
									CHANNELS 3 Xrotation Yrotation Zrotation
									JOINT LeftHand
									{
										OFFSET 18.458662 0.962311 0.193148
										CHANNELS 3 Xrotation Yrotation Zrotation
										JOINT LeftHandThumb1
										{
											OFFSET 2.379990 -1.333382 2.680594
											CHANNELS 3 Xrotation Yrotation Zrotation
											JOINT LeftHandThumb2
											{
												OFFSET 1.903984 -1.066746 2.144473
												CHANNELS 3 Xrotation Yrotation Zrotation
												JOINT LeftHandThumb3
												{
													OFFSET 0.966393 -1.489639 2.964555
													CHANNELS 3 Xrotation Yrotation Zrotation
													JOINT LeftHandThumb4
													{
														OFFSET 1.205181 -0.823021 1.625701
														CHANNELS 3 Xrotation Yrotation Zrotation
														End Site
														{
															OFFSET 0.000000 0.000000 0.000000
														}
													}
												}
											}
										}
										JOINT LeftHandIndex1
										{
											OFFSET 7.830624 -0.787468 2.563931
											CHANNELS 3 Xrotation Yrotation Zrotation
											JOINT LeftHandIndex2
											{
												OFFSET 3.312897 -0.052605 1.515312
												CHANNELS 3 Xrotation Yrotation Zrotation
												JOINT LeftHandIndex3
												{
													OFFSET 3.460667 -0.207008 1.581951
													CHANNELS 3 Xrotation Yrotation Zrotation
													JOINT LeftHandIndex4
													{
														OFFSET 2.183182 0.110458 0.999585
														CHANNELS 3 Xrotation Yrotation Zrotation
														End Site
														{
															OFFSET 0.000000 0.000000 0.000000
														}
													}
												}
											}
										}
										JOINT LeftHandMiddle1
										{
											OFFSET 8.556145 -0.261200 0.258753
											CHANNELS 3 Xrotation Yrotation Zrotation
											JOINT LeftHandMiddle2
											{
												OFFSET 3.828903 -0.489014 -0.111505
												CHANNELS 3 Xrotation Yrotation Zrotation
												JOINT LeftHandMiddle3
												{
													OFFSET 3.696209 -0.166595 -0.107596
													CHANNELS 3 Xrotation Yrotation Zrotation
													JOINT LeftHandMiddle4
													{
														OFFSET 2.259281 0.534500 -0.065675
														CHANNELS 3 Xrotation Yrotation Zrotation
														End Site
														{
															OFFSET 0.000000 0.000000 0.000000
														}
													}
												}
											}
										}
										JOINT LeftHandRing1
										{
											OFFSET 8.509293 -0.556679 -3.044941
											CHANNELS 3 Xrotation Yrotation Zrotation
											JOINT LeftHandRing2
											{
												OFFSET 2.995171 -0.303261 -0.843591
												CHANNELS 3 Xrotation Yrotation Zrotation
												JOINT LeftHandRing3
												{
													OFFSET 2.968273 -0.101997 -0.834287
													CHANNELS 3 Xrotation Yrotation Zrotation
													JOINT LeftHandRing4
													{
														OFFSET 1.521358 -0.461468 -0.418735
														CHANNELS 3 Xrotation Yrotation Zrotation
														End Site
														{
															OFFSET 0.000000 0.000000 0.000000
														}
													}
												}
											}
										}
									}
								}
							}
						}
					}
					JOINT RightShoulder
					{
						OFFSET -2.196075 4.412512 0.070694
						CHANNELS 3 Xrotation Yrotation Zrotation
						JOINT RightShoulder_split
						{
							OFFSET -2.196075 4.412512 0.070694
							CHANNELS 3 Xrotation Yrotation Zrotation
							JOINT RightArm
							{
								OFFSET -8.774886 -2.970947 -0.094209
								CHANNELS 3 Xrotation Yrotation Zrotation
								JOINT RightForeArm
								{
									OFFSET -8.450586 -0.797386 -0.330665
									CHANNELS 3 Xrotation Yrotation Zrotation
									JOINT RightHand
									{
										OFFSET -18.458664 0.962341 0.025780
										CHANNELS 3 Xrotation Yrotation Zrotation
										JOINT RightHandThumb1
										{
											OFFSET -2.390282 -1.240040 2.604684
											CHANNELS 3 Xrotation Yrotation Zrotation
											JOINT RightHandThumb2
											{
												OFFSET -1.912228 -0.992111 2.083740
												CHANNELS 3 Xrotation Yrotation Zrotation
												JOINT RightHandThumb3
												{
													OFFSET -0.876358 -1.555370 2.930126
													CHANNELS 3 Xrotation Yrotation Zrotation
													JOINT RightHandThumb4
													{
														OFFSET -1.227077 -0.755932 1.835223
														CHANNELS 3 Xrotation Yrotation Zrotation
														End Site
														{
															OFFSET 0.000000 0.000000 0.000000
														}
													}
												}
											}
										}
										JOINT RightHandIndex1
										{
											OFFSET -8.716801 -0.633743 3.098187
											CHANNELS 3 Xrotation Yrotation Zrotation
											JOINT RightHandIndex2
											{
												OFFSET -3.319706 -0.240585 1.198087
												CHANNELS 3 Xrotation Yrotation Zrotation
												JOINT RightHandIndex3
												{
													OFFSET -3.153255 -0.154724 1.138827
													CHANNELS 3 Xrotation Yrotation Zrotation
													JOINT RightHandIndex4
													{
														OFFSET -1.818684 -0.003197 0.655154
														CHANNELS 3 Xrotation Yrotation Zrotation
														End Site
														{
															OFFSET 0.000000 0.000000 0.000000
														}
													}
												}
											}
										}
										JOINT RightHandMiddle1
										{
											OFFSET -8.158691 -0.528496 0.196552
											CHANNELS 3 Xrotation Yrotation Zrotation
											JOINT RightHandMiddle2
											{
												OFFSET -3.890194 -0.261169 -0.136423
												CHANNELS 3 Xrotation Yrotation Zrotation
												JOINT RightHandMiddle3
												{
													OFFSET -3.903057 -0.179909 -0.137173
													CHANNELS 3 Xrotation Yrotation Zrotation
													JOINT RightHandMiddle4
													{
														OFFSET -2.366261 0.198380 -0.083987
														CHANNELS 3 Xrotation Yrotation Zrotation
														End Site
														{
															OFFSET 0.000000 0.000000 0.000000
														}
													}
												}
											}
										}
										JOINT RightHandRing1
										{
											OFFSET -7.616104 -0.395126 -2.681268
											CHANNELS 3 Xrotation Yrotation Zrotation
											JOINT RightHandRing2
											{
												OFFSET -3.235790 -0.462120 -1.101476
												CHANNELS 3 Xrotation Yrotation Zrotation
												JOINT RightHandRing3
												{
													OFFSET -3.179264 -0.138618 -1.084847
													CHANNELS 3 Xrotation Yrotation Zrotation
													JOINT RightHandRing4
													{
														OFFSET -1.963291 -0.101624 -0.668250
														CHANNELS 3 Xrotation Yrotation Zrotation
														End Site
														{
															OFFSET 0.000000 0.000000 0.000000
														}
													}
												}
											}
										}
									}
								}
							}
						}
					}
				}
			}
		}
	}
	JOINT LeftUpLeg
	{
		OFFSET 10.205382 -3.823519 0.155145
		CHANNELS 3 Xrotation Yrotation Zrotation
		JOINT LeftLeg
		{
			OFFSET 0.283732 -12.998343 0.567794
			CHANNELS 3 Xrotation Yrotation Zrotation
			JOINT LeftFoot
			{
				OFFSET -1.058953 -10.688869 -2.184322
				CHANNELS 3 Xrotation Yrotation Zrotation
				JOINT LeftToeBase
				{
					OFFSET 0.108145 -7.191069 7.560211
					CHANNELS 3 Xrotation Yrotation Zrotation
					JOINT LeftToe_End
					{
						OFFSET 0.070226 0.081726 4.490266
						CHANNELS 3 Xrotation Yrotation Zrotation
						End Site
						{
							OFFSET 0.000000 0.000000 0.000000
						}
					}
				}
			}
		}
	}
	JOINT RightUpLeg
	{
		OFFSET -10.205383 -3.823513 0.005508
		CHANNELS 3 Xrotation Yrotation Zrotation
		JOINT RightLeg
		{
			OFFSET -0.283728 -12.998341 0.610627
			CHANNELS 3 Xrotation Yrotation Zrotation
			JOINT RightFoot
			{
				OFFSET 1.058956 -10.688892 -1.945833
				CHANNELS 3 Xrotation Yrotation Zrotation
				JOINT RightToeBase
				{
					OFFSET -0.108150 -7.191040 7.372945
					CHANNELS 3 Xrotation Yrotation Zrotation
					JOINT RightToe_End
					{
						OFFSET -0.070229 0.081738 4.479398
						CHANNELS 3 Xrotation Yrotation Zrotation
						End Site
						{
							OFFSET 0.000000 0.000000 0.000000
						}
					}
				}
			}
		}
	}
}
MOTION
Frames: 6
Frame Time: 0.016667
0.185839 47.007053 -7.430393 88.597205 9.797818 5.569596 2.432645 6.270023 -3.858130 5.204486 12.461942 -7.272597 0.000000 0.000000 0.000000 5.204481 12.461929 -7.272598 -13.925049 -2.201571 -7.202082 1.344833 -28.178000 -3.371389 -0.000001 0.000000 0.000000 -0.946207 7.997306 -0.598567 0.000000 0.000000 0.000000 14.011044 -46.622991 16.625068 -15.394514 -109.156812 -5.321556 27.425190 17.676839 72.374904 -19.163752 7.204055 -38.217927 -0.754214 30.335274 16.128445 -1.210721 -15.365552 -7.913971 0.000001 -0.000001 0.000001 31.473891 16.396496 -67.972492 7.902072 -0.396905 -36.690998 2.389648 -0.072715 -5.225846 -0.000000 0.000001 0.000001 2.622518 4.755165 -64.928714 -4.931697 3.993847 -45.252722 -0.455815 0.066364 -15.878035 -0.000001 0.000001 -0.000000 -9.334597 1.995355 -59.153099 -12.906969 11.301922 -62.552559 3.833911 0.767650 13.845953 0.000001 0.000001 -0.000003 3.795572 21.519180 -8.156065 0.000000 0.000000 0.000000 -79.061830 25.577344 36.786340 177.599849 157.530622 -171.169554 1.532901 -5.808840 -1.614986 -14.872387 -8.248648 30.273273 -2.200317 -31.076063 -14.985203 3.562227 14.748214 8.652811 -0.000000 -0.000003 0.000006 -1.204874 -11.712512 -16.898274 5.953405 0.262512 17.484285 0.862188 0.064301 2.396423 0.000003 -0.000001 0.000003 0.358196 -4.421763 -15.244690 -2.233020 -0.312544 23.338082 -0.262367 0.003294 7.422941 -0.000003 0.000001 -0.000002 -3.459315 -2.739117 -10.807312 -8.189095 -0.404472 26.319968 0.144677 -0.044670 -0.418776 -0.000001 0.000003 0.000003 -24.891678 -17.374473 12.183854 33.235308 3.943517 -1.851992 17.539070 -7.886975 -24.658484 -6.651538 -0.037748 0.077034 0.000001 -0.000001 0.000000 -13.169305 -53.656460 -25.369010 7.608190 1.256662 0.020136 15.654623 32.155714 27.240977 11.284398 -0.256443 0.499947 -0.000000 -0.000001 -0.000002 
0.215314 47.004814 -7.485560 88.561886 9.872252 5.531445 2.428335 6.283955 -3.835949 5.197628 12.488341 -7.248150 0.000000 0.000000 0.000000 5.197636 12.488346 -7.248154 -13.955282 -2.219529 -7.151897 1.354289 -28.234288 -3.403389 -0.000001 -0.000000 -0.000001 -0.954755 8.031866 -0.609318 0.000000 0.000000 0.000000 14.081606 -46.860780 16.763606 -15.477383 -108.976679 -5.363690 27.400798 17.582836 72.303604 -19.254291 7.058013 -38.233336 -0.799845 30.261696 16.148101 -1.210714 -15.365550 -7.913969 -0.000001 -0.000000 -0.000003 31.330122 16.458085 -67.781431 7.881567 -0.384474 -36.626579 2.389646 -0.072717 -5.225846 -0.000001 0.000001 0.000001 2.555903 4.776893 -64.687868 -4.932080 3.994424 -45.263742 -0.455814 0.066366 -15.878040 -0.000001 0.000001 -0.000006 -9.363047 2.023837 -59.068378 -12.907382 11.304403 -62.565141 3.833912 0.767648 13.845956 0.000001 -0.000001 0.000000 3.828919 21.676109 -8.200820 0.000000 0.000000 0.000000 -79.041073 25.547050 36.950067 177.571381 157.273247 -171.158530 1.296759 -5.789472 -1.366359 -14.639906 -8.382583 30.610131 -2.183865 -31.107393 -14.979313 3.562221 14.748216 8.652806 0.000001 -0.000002 -0.000001 -1.261007 -11.796637 -17.094130 5.914407 0.258875 17.383820 0.862191 0.064299 2.396422 0.000003 -0.000001 0.000001 0.365078 -4.443376 -15.346177 -2.234278 -0.313247 23.355420 -0.262373 0.003290 7.422939 0.000001 -0.000000 0.000001 -3.508845 -2.666520 -10.490568 -8.200911 -0.408387 26.361547 0.144678 -0.044673 -0.418780 0.000000 -0.000001 0.000001 -24.756290 -17.302693 12.309991 32.783095 3.272696 -1.844629 17.486915 -7.625343 -25.231482 -6.834555 -0.038082 0.077412 -0.000001 -0.000001 -0.000000 -13.202982 -53.753001 -25.453284 7.847134 1.301571 0.038033 15.546612 32.086767 27.397214 11.263858 -0.256342 0.499827 0.000001 -0.000000 0.000002 
0.243321 47.000751 -7.541711 88.511916 9.972165 5.483135 2.426457 6.296855 -3.812691 5.194870 12.512798 -7.217796 0.000000 0.000000 0.000000 5.194844 12.512785 -7.217788 -14.001800 -2.230694 -7.110237 1.358262 -28.274092 -3.435008 -0.000000 0.000000 -0.000001 -0.964025 8.078120 -0.625128 0.000000 0.000000 0.000000 14.154344 -47.158638 16.900419 -15.599659 -108.776391 -5.446321 27.385710 17.483384 72.214115 -19.336103 6.925963 -38.248622 -0.846730 30.186038 16.168263 -1.210723 -15.365559 -7.913975 -0.000002 -0.000003 -0.000005 31.193228 16.512848 -67.603594 7.858902 -0.370777 -36.555343 2.389644 -0.072715 -5.225849 0.000000 0.000001 0.000001 2.490061 4.797986 -64.448804 -4.932240 3.994636 -45.267748 -0.455814 0.066366 -15.878040 0.000000 -0.000000 -0.000001 -9.392058 2.050877 -58.977632 -12.907624 11.305815 -62.572265 3.833911 0.767646 13.845955 0.000001 0.000001 0.000004 3.867198 21.852234 -8.257099 0.000000 0.000000 0.000000 -79.025289 25.518977 37.136821 177.540973 156.999234 -171.146632 1.078937 -5.770463 -1.105275 -14.423631 -8.501800 30.910889 -2.167407 -31.138689 -14.973407 3.562228 14.748214 8.652811 -0.000002 -0.000002 0.000001 -1.310856 -11.872178 -17.261107 5.869193 0.251213 17.256012 0.862188 0.064298 2.396427 -0.000002 -0.000001 -0.000001 0.376248 -4.455374 -15.436849 -2.236163 -0.313956 23.378633 -0.262368 0.003290 7.422940 0.000000 -0.000005 -0.000004 -3.558055 -2.591049 -10.177468 -8.213391 -0.412551 26.405569 0.144675 -0.044670 -0.418780 -0.000001 0.000001 -0.000000 -24.629541 -17.234196 12.444995 32.342052 2.598001 -1.841387 17.432046 -7.369194 -25.782552 -7.039287 -0.038459 0.077827 -0.000002 -0.000000 -0.000000 -13.153315 -53.783181 -25.471942 8.029202 1.342252 0.051706 15.367012 32.009132 27.630113 11.237368 -0.256163 0.499676 0.000003 -0.000001 -0.000004 
0.269630 46.995384 -7.601264 88.440527 10.096315 5.424943 2.429148 6.308157 -3.788482 5.199918 12.533869 -7.180053 0.000000 0.000000 0.000000 5.199923 12.533868 -7.180057 -14.056928 -2.234067 -7.075664 1.342327 -28.280453 -3.466632 -0.000001 -0.000001 -0.000000 -0.973369 8.134291 -0.647642 0.000000 0.000000 0.000000 14.215268 -47.513193 17.019018 -15.751514 -108.560707 -5.559557 27.385901 17.382468 72.101997 -19.397420 6.828142 -38.265500 -0.891624 30.113286 16.187514 -1.210723 -15.365550 -7.913969 -0.000001 -0.000002 0.000003 31.074342 16.552391 -67.458582 7.835433 -0.356615 -36.481533 2.389646 -0.072719 -5.225846 0.000000 0.000006 -0.000005 2.433133 4.817424 -64.219208 -4.931808 3.994023 -45.256178 -0.455813 0.066366 -15.878040 -0.000000 -0.000001 0.000002 -9.421673 2.076334 -58.880561 -12.907215 11.303403 -62.560073 3.833912 0.767645 13.845955 -0.000001 -0.000002 0.000005 3.911073 22.045289 -8.326658 0.000000 0.000000 0.000000 -79.040028 25.470334 37.333674 177.510510 156.725603 -171.134652 0.884094 -5.762559 -0.875947 -14.262038 -8.573705 31.053875 -2.150940 -31.170005 -14.967470 3.562225 14.748219 8.652811 -0.000001 -0.000005 -0.000002 -1.363241 -11.964318 -17.391077 5.811493 0.235389 17.072920 0.862189 0.064294 2.396421 0.000004 0.000001 0.000001 0.392250 -4.460953 -15.591408 -2.238529 -0.314756 23.406433 -0.262372 0.003294 7.422941 0.000003 -0.000000 -0.000000 -3.604286 -2.569193 -9.936688 -8.225520 -0.416615 26.448390 0.144677 -0.044668 -0.418778 0.000002 -0.000001 0.000001 -24.506650 -17.175950 12.591847 31.921565 1.913498 -1.843116 17.363377 -7.125553 -26.329677 -7.261619 -0.038863 0.078289 -0.000000 -0.000000 -0.000000 -12.985687 -53.746660 -25.401928 8.128564 1.375203 0.057712 15.104900 31.912386 27.990633 11.206868 -0.256013 0.499526 0.000003 -0.000001 -0.000001 
0.294569 46.988541 -7.659531 88.360921 10.229246 5.358680 2.433636 6.317022 -3.763651 5.208012 12.550093 -7.138674 0.000000 0.000000 0.000000 5.207991 12.550076 -7.138664 -14.121616 -2.230546 -7.050050 1.325343 -28.259804 -3.485892 0.000000 -0.000001 -0.000001 -0.982283 8.194882 -0.674741 0.000000 0.000000 0.000000 14.255136 -47.883813 17.106972 -15.918374 -108.354251 -5.692027 27.402569 17.287415 71.973808 -19.450751 6.742951 -38.280454 -0.931182 30.049124 16.204499 -1.210720 -15.365557 -7.913969 -0.000001 -0.000000 0.000001 30.971407 16.580704 -67.340017 7.809068 -0.340761 -36.398761 2.389646 -0.072712 -5.225848 0.000002 0.000003 0.000001 2.381836 4.834626 -64.009254 -4.930986 3.992881 -45.234266 -0.455814 0.066367 -15.878038 -0.000000 0.000001 0.000003 -9.451950 2.099928 -58.776933 -12.906677 11.300070 -62.543195 3.833912 0.767645 13.845954 -0.000000 -0.000000 0.000002 3.958474 22.245069 -8.406600 0.000000 0.000000 0.000000 -79.074801 25.421170 37.538884 177.480403 156.455783 -171.122740 0.744807 -5.758759 -0.669524 -14.138525 -8.621652 31.130855 -2.134470 -31.201335 -14.961558 3.562222 14.748214 8.652810 0.000000 0.000000 -0.000001 -1.413541 -12.061567 -17.485808 5.754699 0.220333 16.893824 0.862189 0.064298 2.396424 0.000004 -0.000001 -0.000001 0.407389 -4.469378 -15.769187 -2.241499 -0.315597 23.440200 -0.262372 0.003294 7.422943 -0.000000 -0.000001 -0.000003 -3.649230 -2.576901 -9.721267 -8.238158 -0.420838 26.492933 0.144678 -0.044672 -0.418772 -0.000000 0.000001 0.000001 -24.382351 -17.121064 12.745201 31.511870 1.239935 -1.847799 17.281285 -6.887897 -26.859782 -7.494002 -0.039282 0.078753 0.000000 -0.000000 0.000000 -12.760721 -53.651276 -25.281190 8.188224 1.402828 0.060776 14.783084 31.782766 28.408784 11.174607 -0.255813 0.499347 0.000002 -0.000004 0.000001 
0.318515 46.980045 -7.713649 88.280031 10.359919 5.285567 2.438823 6.321685 -3.738372 5.217249 12.558085 -7.095990 0.000000 0.000000 0.000000 5.217237 12.558083 -7.095999 -14.192851 -2.219901 -7.034098 1.313685 -28.206856 -3.481338 -0.000001 0.000000 -0.000002 -0.989944 8.253538 -0.705459 0.000000 0.000000 0.000000 14.257776 -48.233358 17.145532 -16.082550 -108.181761 -5.828726 27.438591 17.207953 71.830463 -19.503665 6.656786 -38.288401 -0.958089 30.005294 16.216085 -1.210725 -15.365561 -7.913969 -0.000003 -0.000000 0.000003 30.889332 16.599501 -67.249687 7.778875 -0.322653 -36.303907 2.389647 -0.072712 -5.225847 0.000001 -0.000001 0.000000 2.337863 4.848136 -63.837345 -4.929883 3.991381 -45.205248 -0.455814 0.066367 -15.878042 0.000001 -0.000000 0.000002 -9.482960 2.121430 -58.666387 -12.906296 11.297946 -62.532568 3.833912 0.767645 13.845955 0.000001 0.000001 0.000004 4.008127 22.442497 -8.496377 0.000000 0.000000 0.000000 -79.132734 25.380237 37.750394 177.451457 156.197602 -171.111251 0.703371 -5.759190 -0.494136 -14.066028 -8.645489 31.163537 -2.117993 -31.232655 -14.955599 3.562224 14.748216 8.652803 -0.000002 0.000000 -0.000002 -1.459619 -12.162111 -17.534909 5.716565 0.217500 16.797286 0.862185 0.064294 2.396425 0.000001 -0.000001 0.000000 0.412236 -4.499374 -15.957098 -2.245702 -0.316534 23.485334 -0.262368 0.003290 7.422943 -0.000002 -0.000000 -0.000003 -3.693597 -2.616847 -9.504487 -8.252031 -0.425512 26.542025 0.144675 -0.044673 -0.418777 -0.000004 0.000001 0.000002 -24.244924 -17.066744 12.902707 31.097725 0.588191 -1.854065 17.187406 -6.653538 -27.372162 -7.731544 -0.039727 0.079225 0.000000 -0.000001 0.000001 -12.513590 -53.504031 -25.132219 8.233507 1.426356 0.064178 14.412970 31.602360 28.848779 11.143694 -0.255647 0.499173 0.000001 0.000001 -0.000003 
